:SAMPLES-PER-SECOND 30
:FULLY-SPECIFIED
:DEGREES
378
root  34.98751423 36.50799849 -14.93554603 8.891303062 -1.081917524 2.950376511
lowerback  -8.565951347 -0.2924080193 1.272150517
upperback  -3.904299974 -0.06672760099 -2.691922426
thorax  0.7501760125 0.09416069835 -3.506279945
lowerneck  -15.77110004 -1.615429997 -0.749867022
upperneck  21.18479919 -2.561019897 4.628180027
head  9.356749535 -0.4869509935 1.437839866
lclavicle  0 -4.497500157e-015 -2.743230041e-014
lhumerus  -43.86610031 25.08329964 71.17500305
lradius  -0.3810739219 -6.507048965e-006 29.05060005
lwrist  4.824992743e-007 -3.790274832e-007 -27.79159927
lhand  -4.405300586e-031 -36.72040176 -10.72439957
lfingers  90 7.125020027 -90
lthumb  94.74225044 -25.56571091 100.8814038
rclavicle  0 -4.497500157e-015 -2.743230041e-014
rhumerus  -43.00090027 -22.44150162 -70.55899811
rradius  -5.16745672e-007 2.214343908e-008 50.51079941
rwrist  -3.062178075e-005 0.01194404531 -156.2899933
rhand  -1.775242907e-031 5.986219883 -7.881830215
rfingers  -90 -7.125020027 -90
rthumb  -84.88329923 -8.341505645 -58.31643225
rfemur  -12.50131416 15.64530945 13.61491394
rtibia  -0.9966794252 0.4279642701 21.19698334
rfoot  -0.526309371 -19.77526093 -39.03382111
rtoes  4.099939364 19.59211694 -102.066185
lfemur  -10.03330994 -17.46081924 -18.44458771
ltibia  1.077661753 0.3285850585 16.49477577
lfoot  0.5091837645 -26.98605156 35.45001984
ltoes  -8.506763157 -18.16811184 -115.6267749
379
root  34.98518936 36.51452553 -14.93498584 8.886631012 -1.089589834 2.9457407
lowerback  -8.584481239 -0.2802480161 1.267630458
upperback  -3.907840014 -0.04992070049 -2.686657429
thorax  0.7579540014 0.1029290035 -3.493659973
lowerneck  -15.75870037 -1.577520013 -0.7275829911
upperneck  21.17370033 -2.512470007 4.627230167
head  9.348790169 -0.4629039764 1.439840078
lclavicle  0 -4.497500157e-015 -2.743230041e-014
lhumerus  -43.84360123 25.13080025 71.18039703
lradius  -0.3824315965 -6.507048965e-006 29.0442009
lwrist  4.824992743e-007 -3.790274832e-007 -27.7758007
lhand  -4.405300586e-031 -36.72040176 -10.72439957
lfingers  90 7.125020027 -90
lthumb  94.74225044 -25.56571091 100.8814038
rclavicle  0 -4.497500157e-015 -2.743230041e-014
rhumerus  -42.87020111 -23.12540054 -70.13310242
rradius  -5.16745672e-007 2.214343908e-008 48.84360123
rwrist  -3.062178075e-005 0.01194404531 -154.9389954
rhand  -1.775242907e-031 5.986219883 -7.881830215
rfingers  -90 -7.125020027 -90
rthumb  -84.88329923 -8.341505645 -58.31643225
rfemur  -12.47587585 15.67632008 13.6222744
rtibia  -0.9942145944 0.436547637 21.16606331
rfoot  -0.5134842992 -19.75284576 -39.05176544
rtoes  4.099939364 19.59211694 -102.066185
lfemur  -10.03871536 -17.52353096 -18.44933319
ltibia  1.066024184 0.2852115333 16.52116966
lfoot  0.4952098131 -26.90484047 35.45755386
ltoes  -8.506763157 -18.16811184 -115.6267749
380
root  34.98365447 36.50867132 -14.93343293 8.893361092 -1.116432905 2.942655563
lowerback  -8.587429047 -0.2515430152 1.264029264
upperback  -3.906529903 -0.0115908999 -2.683328867
thorax  0.7636550069 0.1221430004 -3.488960028
lowerneck  -15.76259995 -1.564810038 -0.7273979783
upperneck  21.16139984 -2.496150255 4.632209778
head  9.347060204 -0.4552695453 1.443569183
lclavicle  0 -4.497500157e-015 -2.743230041e-014
lhumerus  -43.80110168 25.05920029 71.22650146
lradius  -0.383777231 -6.507048965e-006 29.02420235
lwrist  4.824992743e-007 -3.790274832e-007 -27.8010006
lhand  -4.405300586e-031 -36.72040176 -10.72439957
lfingers  90 7.125020027 -90
lthumb  94.74225044 -25.56571091 100.8814038
rclavicle  0 -4.497500157e-015 -2.743230041e-014
rhumerus  -42.80469894 -24.08740234 -69.54170227
rradius  -5.16745672e-007 2.214343908e-008 47.19010162
rwrist  -3.062178075e-005 0.01194404531 -153.3040009
rhand  -1.775242907e-031 5.986219883 -7.881830215
rfingers  -90 -7.125020027 -90
rthumb  -84.88329923 -8.341505645 -58.31643225
rfemur  -12.49339008 15.68375874 13.61687183
rtibia  -0.9933795333 0.4202806354 21.16660309
rfoot  -0.5120940208 -19.78106499 -39.03875732
rtoes  4.099939364 19.59211694 -102.066185
lfemur  -10.01859665 -17.46037674 -18.44875145
ltibia  1.089905143 0.3126561642 16.48775673
lfoot  0.5216659904 -26.93806648 35.48814011
ltoes  -8.506763157 -18.16811184 -115.6267749
381
root  34.98163298 36.50665283 -14.93126877 8.969254494 -1.109367371 2.930608749
lowerback  -8.52231884 -0.2407129556 1.249749541
upperback  -3.891259909 0.001178149949 -2.682614326
thorax  0.7446119785 0.1273220032 -3.482919931
lowerneck  -15.78540039 -1.541309953 -0.710777998
upperneck  21.17499924 -2.466649771 4.627399921
head  9.354454994 -0.4400137365 1.445868492
lclavicle  0 -4.497500157e-015 -2.743230041e-014
lhumerus  -43.79399872 25.08799934 71.20929718
lradius  -0.3851182163 -6.507048965e-006 28.97470093
lwrist  4.824992743e-007 -3.790274832e-007 -27.96980095
lhand  -4.405300586e-031 -36.72040176 -10.72439957
lfingers  90 7.125020027 -90
lthumb  94.74225044 -25.56571091 100.8814038
rclavicle  0 -4.497500157e-015 -2.743230041e-014
rhumerus  -42.80279922 -24.74710083 -69.07900238
rradius  -5.16745672e-007 2.214343908e-008 45.66360092
rwrist  -3.062178075e-005 0.01194404531 -152.0690002
rhand  -1.775242907e-031 5.986219883 -7.881830215
rfingers  -90 -7.125020027 -90
rthumb  -84.88329923 -8.341505645 -58.31643225
rfemur  -12.58713627 15.75959206 13.60871029
rtibia  -0.9975166917 0.4389441311 21.18349075
rfoot  -0.5265653729 -19.73321724 -39.0970726
rtoes  4.099939364 19.59211694 -102.066185
lfemur  -10.10275555 -17.4465847 -18.4066391
ltibia  1.080187321 0.3372533321 16.49827194
lfoot  0.5246503949 -26.96820641 35.47831345
ltoes  -8.506763157 -18.16811184 -115.6267749
382
root  34.97911588 36.50600704 -14.9294305 8.989936829 -1.113965988 2.9563272
lowerback  -8.499879837 -0.2188020498 1.282070398
upperback  -3.895359993 0.0269344002 -2.685169935
thorax  0.7296820283 0.1393399984 -3.493010044
lowerneck  -15.81200027 -1.511139989 -0.6877020001
upperneck  21.19599915 -2.429050207 4.621930122
head  9.363400459 -0.4200670123 1.442149997
lclavicle  0 -4.497500157e-015 -2.743230041e-014
lhumerus  -43.80410004 25.05039978 71.23699951
lradius  -0.3864561319 -6.507048965e-006 28.97800064
lwrist  4.824992743e-007 -3.790274832e-007 -27.9993
lhand  -4.405300586e-031 -36.72040176 -10.72439957
lfingers  90 7.125020027 -90
lthumb  94.74225044 -25.56571091 100.8814038
rclavicle  0 -4.497500157e-015 -2.743230041e-014
rhumerus  -42.78929901 -25.60479927 -68.53379822
rradius  -5.16745672e-007 2.214343908e-008 44.12760162
rwrist  -3.062178075e-005 0.01194404531 -150.4299927
rhand  -1.775242907e-031 5.986219883 -7.881830215
rfingers  -90 -7.125020027 -90
rthumb  -84.88329923 -8.341505645 -58.31643225
rfemur  -12.63048744 15.7897768 13.58808136
rtibia  -1.014427423 0.4357041419 21.23443794
rfoot  -0.5501827598 -19.73425865 -39.11521912
rtoes  4.099939364 19.59211694 -102.066185
lfemur  -10.08182049 -17.44680214 -18.45602798
ltibia  1.131710172 0.3321891129 16.43926239
lfoot  0.5242445469 -26.92609596 35.45976639
ltoes  -8.506763157 -18.16811184 -115.6267749
383
root  34.97591695 36.50690214 -14.92854441 9.014643669 -1.118428469 2.927987337
lowerback  -8.478759766 -0.1971240491 1.271239996
upperback  -3.898410082 0.05698940158 -2.694489956
thorax  0.7170410156 0.1543599963 -3.493799925
lowerneck  -15.83139992 -1.474789977 -0.6548380256
upperneck  21.19709969 -2.381939888 4.598259926
head  9.365209579 -0.398186028 1.434380054
lclavicle  0 -4.497500157e-015 -2.743230041e-014
lhumerus  -43.79470062 25.00499916 71.27539825
lradius  -0.3877924979 -6.507048965e-006 28.96851349
lwrist  4.824992743e-007 -3.790274832e-007 -27.97559929
lhand  -4.405300586e-031 -36.72040176 -10.72439957
lfingers  90 7.125020027 -90
lthumb  94.74225044 -25.56571091 100.8814038
rclavicle  0 -4.497500157e-015 -2.743230041e-014
rhumerus  -42.8891983 -26.57740021 -67.84210205
rradius  -5.16745672e-007 2.214343908e-008 42.62080002
rwrist  -3.062178075e-005 0.01194404531 -149.1199951
rhand  -1.775242907e-031 5.986219883 -7.881830215
rfingers  -90 -7.125020027 -90
rthumb  -84.88329923 -8.341505645 -58.31643225
rfemur  -12.64023781 15.83219337 13.60999203
rtibia  -1.002609134 0.4487947226 21.19382095
rfoot  -0.5424650311 -19.70899773 -39.16160583
rtoes  4.099939364 19.59211694 -102.066185
lfemur  -10.14392185 -17.44841194 -18.38943863
ltibia  1.09898603 0.3453451693 16.50134277
lfoot  0.5463489294 -26.96529198 35.48997116
ltoes  -8.506763157 -18.16811184 -115.6267749
384
root  34.97434301 36.50729863 -14.9254491 9.024242401 -1.123658776 2.938857794
lowerback  -8.47165966 -0.1759189963 1.291289806
upperback  -3.89131999 0.08268719912 -2.696472168
thorax  0.7222030163 0.1666409969 -3.504829884
lowerneck  -15.86270046 -1.438339949 -0.5640029907
upperneck  21.1609993 -2.338109732 4.508560181
head  9.354840279 -0.3832040429 1.39289999
lclavicle  0 -4.497500157e-015 -2.743230041e-014
lhumerus  -43.75650024 24.94869995 71.32640076
lradius  -0.3891288936 -6.507048965e-006 28.97890091
lwrist  4.824992743e-007 -3.790274832e-007 -27.87350082
lhand  -4.405300586e-031 -36.72040176 -10.72439957
lfingers  90 7.125020027 -90
lthumb  94.74225044 -25.56571091 100.8814038
rclavicle  0 -4.497500157e-015 -2.743230041e-014
rhumerus  -42.97180176 -27.5318985 -67.20709991
rradius  -5.16745672e-007 2.214343908e-008 41.22249985
rwrist  -3.062178075e-005 0.01194404531 -147.5079956
rhand  -1.775242907e-031 5.986219883 -7.881830215
rfingers  -90 -7.125020027 -90
rthumb  -84.88329923 -8.341505645 -58.31643225
rfemur  -12.64389896 15.813941 13.59621239
rtibia  -1.007633209 0.4214477837 21.184515
rfoot  -0.5461061001 -19.74410629 -39.16425323
rtoes  4.099939364 19.59211694 -102.066185
lfemur  -10.12723637 -17.38287354 -18.41185951
ltibia  1.131418109 0.3716741502 16.46450996
lfoot  0.5538979173 -27.00402832 35.45339966
ltoes  -8.506763157 -18.16811184 -115.6267749
